<?xml version="1.0" encoding="iso-8859-1"?>
<!-- Uploaded to: SVG Repo, www.svgrepo.com, Transformed by: SVG Repo Mixer Tools -->
<svg version="1.1" id="Layer_1" xmlns="http://www.w3.org/2000/svg" xmlns:xlink="http://www.w3.org/1999/xlink" 
	 viewBox="0 0 512 512" xml:space="preserve">
<path style="fill:#415E72;" d="M469.32,396.792V102.4c0-7.04-5.76-12.8-12.8-12.8H55.536c-7.04,0-12.8,5.76-12.8,12.8v294.392
	C42.736,396.792,470.384,396.792,469.32,396.792z"/>
<rect y="396.8" style="fill:#CFDCE5;" width="512" height="8.536"/>
<polygon style="fill:#AAC1CE;" points="486.4,422.4 25.6,422.4 0,405.328 512,405.328 "/>
<g style="opacity:0.7;">
	<path style="fill:#FFFFFF;" d="M299.04,396.8h-86.08c0.816,4.792,4.824,8.536,9.832,8.536H289.2
		C294.216,405.328,298.224,401.592,299.04,396.8z"/>
</g>
<g style="opacity:0.12;">
	<rect x="56.24" y="107.2" style="fill:#FFFFFF;" width="16" height="16"/>
	<rect x="91.072" y="107.2" style="fill:#FFFFFF;" width="16" height="16"/>
	<rect x="125.944" y="107.2" style="fill:#FFFFFF;" width="16" height="16"/>
	<rect x="160.8" y="107.2" style="fill:#FFFFFF;" width="16" height="16"/>
	<rect x="195.688" y="107.2" style="fill:#FFFFFF;" width="16" height="16"/>
	<rect x="230.56" y="107.2" style="fill:#FFFFFF;" width="16" height="16"/>
	<rect x="265.44" y="107.2" style="fill:#FFFFFF;" width="16" height="16"/>
	<rect x="300.312" y="107.2" style="fill:#FFFFFF;" width="16" height="16"/>
	<rect x="335.184" y="107.2" style="fill:#FFFFFF;" width="16" height="16"/>
	<rect x="370.08" y="107.2" style="fill:#FFFFFF;" width="16" height="16"/>
	<rect x="404.928" y="107.2" style="fill:#FFFFFF;" width="16" height="16"/>
	<rect x="439.8" y="107.2" style="fill:#FFFFFF;" width="16" height="16"/>
	<rect x="56.24" y="139.2" style="fill:#FFFFFF;" width="16" height="16"/>
	<rect x="91.072" y="139.2" style="fill:#FFFFFF;" width="16" height="16"/>
	<rect x="125.944" y="139.2" style="fill:#FFFFFF;" width="16" height="16"/>
	<rect x="160.8" y="139.2" style="fill:#FFFFFF;" width="16" height="16"/>
	<rect x="195.688" y="139.2" style="fill:#FFFFFF;" width="16" height="16"/>
	<rect x="230.56" y="139.2" style="fill:#FFFFFF;" width="16" height="16"/>
	<rect x="265.44" y="139.2" style="fill:#FFFFFF;" width="16" height="16"/>
	<rect x="300.312" y="139.2" style="fill:#FFFFFF;" width="16" height="16"/>
	<rect x="335.184" y="139.2" style="fill:#FFFFFF;" width="16" height="16"/>
	<rect x="370.08" y="139.2" style="fill:#FFFFFF;" width="16" height="16"/>
	<rect x="404.928" y="139.2" style="fill:#FFFFFF;" width="16" height="16"/>
	<rect x="439.8" y="139.2" style="fill:#FFFFFF;" width="16" height="16"/>
	<rect x="56.24" y="171.2" style="fill:#FFFFFF;" width="16" height="16"/>
	<rect x="91.072" y="171.2" style="fill:#FFFFFF;" width="16" height="16"/>
	<rect x="125.944" y="171.2" style="fill:#FFFFFF;" width="16" height="16"/>
	<rect x="160.8" y="171.2" style="fill:#FFFFFF;" width="16" height="16"/>
	<rect x="195.688" y="171.2" style="fill:#FFFFFF;" width="16" height="16"/>
	<rect x="230.56" y="171.2" style="fill:#FFFFFF;" width="16" height="16"/>
	<rect x="265.44" y="171.2" style="fill:#FFFFFF;" width="16" height="16"/>
	<rect x="300.312" y="171.2" style="fill:#FFFFFF;" width="16" height="16"/>
	<rect x="335.184" y="171.2" style="fill:#FFFFFF;" width="16" height="16"/>
	<rect x="370.08" y="171.2" style="fill:#FFFFFF;" width="16" height="16"/>
	<rect x="404.928" y="171.2" style="fill:#FFFFFF;" width="16" height="16"/>
	<rect x="439.8" y="171.2" style="fill:#FFFFFF;" width="16" height="16"/>
	<rect x="56.24" y="203.2" style="fill:#FFFFFF;" width="16" height="16"/>
	<rect x="91.072" y="203.2" style="fill:#FFFFFF;" width="16" height="16"/>
	<rect x="125.944" y="203.2" style="fill:#FFFFFF;" width="16" height="16"/>
	<rect x="160.8" y="203.2" style="fill:#FFFFFF;" width="16" height="16"/>
	<rect x="195.688" y="203.2" style="fill:#FFFFFF;" width="16" height="16"/>
	<rect x="230.56" y="203.2" style="fill:#FFFFFF;" width="16" height="16"/>
	<rect x="265.44" y="203.2" style="fill:#FFFFFF;" width="16" height="16"/>
	<rect x="300.312" y="203.2" style="fill:#FFFFFF;" width="16" height="16"/>
	<rect x="335.184" y="203.2" style="fill:#FFFFFF;" width="16" height="16"/>
	<rect x="370.08" y="203.2" style="fill:#FFFFFF;" width="16" height="16"/>
	<rect x="404.928" y="203.2" style="fill:#FFFFFF;" width="16" height="16"/>
	<rect x="439.8" y="203.2" style="fill:#FFFFFF;" width="16" height="16"/>
	<rect x="56.24" y="235.2" style="fill:#FFFFFF;" width="16" height="16"/>
	<rect x="91.072" y="235.2" style="fill:#FFFFFF;" width="16" height="16"/>
	<rect x="125.944" y="235.2" style="fill:#FFFFFF;" width="16" height="16"/>
	<rect x="160.8" y="235.2" style="fill:#FFFFFF;" width="16" height="16"/>
	<rect x="195.688" y="235.2" style="fill:#FFFFFF;" width="16" height="16"/>
	<rect x="230.56" y="235.2" style="fill:#FFFFFF;" width="16" height="16"/>
	<rect x="265.44" y="235.2" style="fill:#FFFFFF;" width="16" height="16"/>
	<rect x="300.312" y="235.2" style="fill:#FFFFFF;" width="16" height="16"/>
	<rect x="335.184" y="235.2" style="fill:#FFFFFF;" width="16" height="16"/>
	<rect x="370.08" y="235.2" style="fill:#FFFFFF;" width="16" height="16"/>
	<rect x="404.928" y="235.2" style="fill:#FFFFFF;" width="16" height="16"/>
	<rect x="439.8" y="235.2" style="fill:#FFFFFF;" width="16" height="16"/>
	<rect x="56.24" y="267.2" style="fill:#FFFFFF;" width="16" height="16"/>
	<rect x="91.072" y="267.2" style="fill:#FFFFFF;" width="16" height="16"/>
	<rect x="125.944" y="267.2" style="fill:#FFFFFF;" width="16" height="16"/>
	<rect x="160.8" y="267.2" style="fill:#FFFFFF;" width="16" height="16"/>
	<rect x="195.688" y="267.2" style="fill:#FFFFFF;" width="16" height="16"/>
	<rect x="230.56" y="267.2" style="fill:#FFFFFF;" width="16" height="16"/>
	<rect x="265.44" y="267.2" style="fill:#FFFFFF;" width="16" height="16"/>
	<rect x="300.312" y="267.2" style="fill:#FFFFFF;" width="16" height="16"/>
	<rect x="335.184" y="267.2" style="fill:#FFFFFF;" width="16" height="16"/>
	<rect x="370.08" y="267.2" style="fill:#FFFFFF;" width="16" height="16"/>
	<rect x="404.928" y="267.2" style="fill:#FFFFFF;" width="16" height="16"/>
	<rect x="439.8" y="267.2" style="fill:#FFFFFF;" width="16" height="16"/>
	<rect x="56.24" y="299.2" style="fill:#FFFFFF;" width="16" height="16"/>
	<rect x="91.072" y="299.2" style="fill:#FFFFFF;" width="16" height="16"/>
	<rect x="125.944" y="299.2" style="fill:#FFFFFF;" width="16" height="16"/>
	<rect x="160.8" y="299.2" style="fill:#FFFFFF;" width="16" height="16"/>
	<rect x="195.688" y="299.2" style="fill:#FFFFFF;" width="16" height="16"/>
	<rect x="230.56" y="299.2" style="fill:#FFFFFF;" width="16" height="16"/>
	<rect x="265.44" y="299.2" style="fill:#FFFFFF;" width="16" height="16"/>
	<rect x="300.312" y="299.2" style="fill:#FFFFFF;" width="16" height="16"/>
	<rect x="335.184" y="299.2" style="fill:#FFFFFF;" width="16" height="16"/>
	<rect x="370.08" y="299.2" style="fill:#FFFFFF;" width="16" height="16"/>
	<rect x="404.928" y="299.2" style="fill:#FFFFFF;" width="16" height="16"/>
	<rect x="439.8" y="299.2" style="fill:#FFFFFF;" width="16" height="16"/>
	<rect x="56.24" y="331.2" style="fill:#FFFFFF;" width="16" height="16"/>
	<rect x="91.072" y="331.2" style="fill:#FFFFFF;" width="16" height="16"/>
	<rect x="125.944" y="331.2" style="fill:#FFFFFF;" width="16" height="16"/>
	<rect x="160.8" y="331.2" style="fill:#FFFFFF;" width="16" height="16"/>
	<rect x="195.688" y="331.2" style="fill:#FFFFFF;" width="16" height="16"/>
	<rect x="230.56" y="331.2" style="fill:#FFFFFF;" width="16" height="16"/>
	<rect x="265.44" y="331.2" style="fill:#FFFFFF;" width="16" height="16"/>
	<rect x="300.312" y="331.2" style="fill:#FFFFFF;" width="16" height="16"/>
	<rect x="335.184" y="331.2" style="fill:#FFFFFF;" width="16" height="16"/>
	<rect x="370.08" y="331.2" style="fill:#FFFFFF;" width="16" height="16"/>
	<rect x="404.928" y="331.2" style="fill:#FFFFFF;" width="16" height="16"/>
	<rect x="439.8" y="331.2" style="fill:#FFFFFF;" width="16" height="16"/>
	<rect x="56.24" y="363.2" style="fill:#FFFFFF;" width="16" height="16"/>
	<rect x="91.072" y="363.2" style="fill:#FFFFFF;" width="16" height="16"/>
	<rect x="125.944" y="363.2" style="fill:#FFFFFF;" width="16" height="16"/>
	<rect x="160.8" y="363.2" style="fill:#FFFFFF;" width="16" height="16"/>
	<rect x="195.688" y="363.2" style="fill:#FFFFFF;" width="16" height="16"/>
	<rect x="230.56" y="363.2" style="fill:#FFFFFF;" width="16" height="16"/>
	<rect x="265.44" y="363.2" style="fill:#FFFFFF;" width="16" height="16"/>
	<rect x="300.312" y="363.2" style="fill:#FFFFFF;" width="16" height="16"/>
	<rect x="335.184" y="363.2" style="fill:#FFFFFF;" width="16" height="16"/>
	<rect x="370.08" y="363.2" style="fill:#FFFFFF;" width="16" height="16"/>
	<rect x="404.928" y="363.2" style="fill:#FFFFFF;" width="16" height="16"/>
	<rect x="439.8" y="363.2" style="fill:#FFFFFF;" width="16" height="16"/>
</g>
<g>
	<path style="fill:#25B6D2;" d="M137.432,220.336h-18.488l19.776-94.424h18.488l-7.088,33.624c4.168-3.264,8.056-5.616,11.664-7.048
		c3.6-1.44,7.472-2.16,11.592-2.16c5.536,0,9.912,1.592,13.144,4.768c3.216,3.176,4.832,7.344,4.832,12.496
		c0,2.752-0.6,7-1.808,12.752l-8.376,40H162.68l8.568-40.776c0.896-4.424,1.352-7.256,1.352-8.496c0-2.28-0.712-4.104-2.128-5.48
		c-1.424-1.376-3.352-2.064-5.8-2.064c-3.096,0-6.056,1.072-8.888,3.224c-3.696,2.832-6.504,6.312-8.44,10.432
		c-1.08,2.28-2.496,7.624-4.248,16.04L137.432,220.336z"/>
	<path style="fill:#25B6D2;" d="M203.912,165.656l2.832-13.72h9.024l2.248-10.952l21.192-12.752l-4.96,23.704h11.272l-2.832,13.72
		h-11.336l-5.992,28.664c-1.072,5.2-1.608,8.16-1.608,8.888c0,1.416,0.456,2.52,1.352,3.32c0.904,0.8,2.528,1.192,4.896,1.192
		c0.816,0,2.848-0.152,6.12-0.448l-2.896,13.72c-3.176,0.648-6.44,0.968-9.792,0.968c-6.528,0-11.272-1.256-14.232-3.768
		c-2.968-2.512-4.448-6-4.448-10.472c0-2.104,0.792-6.96,2.384-14.552l5.736-27.504h-8.96V165.656z"/>
	<path style="fill:#25B6D2;" d="M256.92,151.936h17.392l-1.736,8.312c6.784-6.616,13.904-9.92,21.384-9.92
		c5.152,0,9.128,1.072,11.912,3.224c2.792,2.144,4.568,5.112,5.344,8.888c2.368-3.432,5.76-6.312,10.176-8.632
		c4.424-2.32,9.016-3.48,13.784-3.48c5.456,0,9.704,1.464,12.76,4.376c3.048,2.92,4.568,6.784,4.568,11.6
		c0,2.36-0.6,6.44-1.808,12.232l-8.76,41.808h-18.488l8.76-41.808c1.072-5.24,1.608-8.2,1.608-8.888c0-1.888-0.568-3.384-1.704-4.48
		c-1.144-1.096-2.84-1.648-5.128-1.648c-4.592,0-8.696,2.432-12.296,7.28c-2.624,3.48-4.856,9.64-6.704,18.488l-6.504,31.048
		h-18.488l8.632-41.352c0.984-4.768,1.488-7.856,1.488-9.28c0-1.8-0.616-3.288-1.832-4.44c-1.224-1.16-2.912-1.744-5.064-1.744
		c-2.016,0-4.096,0.608-6.24,1.808c-2.152,1.2-4.032,2.856-5.64,4.96s-2.992,4.808-4.152,8.112
		c-0.512,1.544-1.36,5.048-2.512,10.496l-6.568,31.432h-18.488L256.92,151.936z"/>
	<path style="fill:#25B6D2;" d="M360.368,220.336l19.776-94.424h18.424l-19.712,94.424H360.368z"/>
</g>
<g>
	<path style="fill:#FFFFFF;" d="M139.408,313.96l77.304-35.912v17.072l-58.464,25.608v0.32l58.464,25.608v17.072l-77.304-35.912
		V313.96z"/>
	<path style="fill:#FFFFFF;" d="M228.648,370.168L263.112,253.4h16.264l-34.464,116.768H228.648z"/>
	<path style="fill:#FFFFFF;" d="M366.032,328.288l-77.304,35.432v-17.072l59.752-25.608v-0.32l-59.752-25.608V278.04l77.304,35.432
		C366.032,313.472,366.032,328.288,366.032,328.288z"/>
</g>
</svg>